<svg xmlns="http://www.w3.org/2000/svg" width="512" height="512" viewBox="0 0 135.467 135.467"><path fill="#fff" stroke="#fff" stroke-width=".235" d="M67.733 135.35c29.63 0 46.1 0 56.858-10.759 10.758-10.758 10.758-27.229 10.758-56.858 0-29.629 0-46.1-10.758-56.858C113.833.118 97.362.118 67.733.118c-29.629 0-46.1 0-56.858 10.757C.118 21.633.118 38.105.118 67.733c0 29.63 0 46.1 10.757 56.858 10.758 10.758 27.23 10.758 56.858 10.758z"/><path fill="#16a234" d="M108.768 39.514v6.913h.928c3.01 0 5.459-2.65 5.459-5.909v-1.004zM92.629 19.353c-5.835 0-10.583 5.14-10.583 11.455v62.395H30.894c-5.835 0-10.582 5.139-10.582 11.455 0 6.317 4.747 11.456 10.582 11.456H92.63c5.835 0 10.582-5.14 10.582-11.456v-73.85c0-6.316-4.747-11.455-10.582-11.455zm3.836 20.16h-6.25v-6.015h6.25z" class="active-path" data-old_color="#000000" data-original="#000000"/></svg>